<svg
			  xmlns="http://www.w3.org/2000/svg"
			  width="16"
			  height="16"
			  fill="currentColor"
			  class="bi bi-pencil-square"
			  viewBox="0 0 16 16"
			>
			  <path
				d="M15.502 1.94a.5.5 0 0 1 0 .706L14.459 3.69l-2-2L13.502.646a.5.5 0 0 1 .707 0l1.293 1.293zm-1.75 2.456-2-2L4.939 9.21a.5.5 0 0 0 .707.707l1.293 1.293 2.646-2.647a.5.5 0 0 0 0-.707zM10.008 10.008a.5.5 0 0 1 .707 0l1.293 1.293 2.646-2.647a.5.5 0 0 1 .707-.707l-1.293-1.293-2.646 2.647a.5.5 0 0 1-.707 0z"
			  />
			</svg>